<svg width="600" height="800" viewbox="0 0 600 800" xmlns="http://www.w3.org/2000/svg">
  <style>
    @keyframes wave {
      0% { transform: scaleX(0); }
      50% { transform: scaleX(1); }
      100% { transform: scaleX(0); }
    }
    .bar {
      animation: wave 8s infinite;
      transform-origin: left;
      transform: scaleX(0);
    }
  </style>
  <rect style="animation-delay: 0.00s;" fill="#fff" height="15" width="600" y="0" x="0" class="bar"></rect>
  <rect style="animation-delay: 0.48s;" fill="#fff" height="15" width="600" y="17" x="0" class="bar"></rect>
  <rect style="animation-delay: 0.96s;" fill="#fff" height="15" width="600" y="34" x="0" class="bar"></rect>
  <rect style="animation-delay: 1.44s;" fill="#fff" height="15" width="600" y="51" x="0" class="bar"></rect>
  <rect style="animation-delay: 1.92s;" fill="#fff" height="15" width="600" y="68" x="0" class="bar"></rect>
  <rect style="animation-delay: 2.40s;" fill="#fff" height="15" width="600" y="85" x="0" class="bar"></rect>
  <rect style="animation-delay: 2.88s;" fill="#fff" height="15" width="600" y="102" x="0" class="bar"></rect>
  <rect style="animation-delay: 3.36s;" fill="#fff" height="15" width="600" y="119" x="0" class="bar"></rect>
  <rect style="animation-delay: 3.84s;" fill="#fff" height="15" width="600" y="136" x="0" class="bar"></rect>
  <rect style="animation-delay: 4.32s;" fill="#fff" height="15" width="600" y="153" x="0" class="bar"></rect>
  <rect style="animation-delay: 4.80s;" fill="#fff" height="15" width="600" y="170" x="0" class="bar"></rect>
  <rect style="animation-delay: 5.28s;" fill="#fff" height="15" width="600" y="187" x="0" class="bar"></rect>
  <rect style="animation-delay: 5.76s;" fill="#fff" height="15" width="600" y="204" x="0" class="bar"></rect>
  <rect style="animation-delay: 6.24s;" fill="#fff" height="15" width="600" y="221" x="0" class="bar"></rect>
  <rect style="animation-delay: 6.72s;" fill="#fff" height="15" width="600" y="238" x="0" class="bar"></rect>
  <rect style="animation-delay: 7.20s;" fill="#fff" height="15" width="600" y="255" x="0" class="bar"></rect>
  <rect style="animation-delay: 7.68s;" fill="#fff" height="15" width="600" y="272" x="0" class="bar"></rect>
  <rect style="animation-delay: 8.16s;" fill="#fff" height="15" width="600" y="289" x="0" class="bar"></rect>
  <rect style="animation-delay: 8.64s;" fill="#fff" height="15" width="600" y="306" x="0" class="bar"></rect>
  <rect style="animation-delay: 9.12s;" fill="#fff" height="15" width="600" y="323" x="0" class="bar"></rect>
  <rect style="animation-delay: 9.60s;" fill="#fff" height="15" width="600" y="340" x="0" class="bar"></rect>
  <rect style="animation-delay: 10.08s;" fill="#fff" height="15" width="600" y="357" x="0" class="bar"></rect>
  <rect style="animation-delay: 10.56s;" fill="#fff" height="15" width="600" y="374" x="0" class="bar"></rect>
  <rect style="animation-delay: 11.04s;" fill="#fff" height="15" width="600" y="391" x="0" class="bar"></rect>
  <rect style="animation-delay: 11.52s;" fill="#fff" height="15" width="600" y="408" x="0" class="bar"></rect>
  <rect style="animation-delay: 12.00s;" fill="#fff" height="15" width="600" y="425" x="0" class="bar"></rect>
  <rect style="animation-delay: 12.48s;" fill="#fff" height="15" width="600" y="442" x="0" class="bar"></rect>
  <rect style="animation-delay: 12.96s;" fill="#fff" height="15" width="600" y="459" x="0" class="bar"></rect>
  <rect style="animation-delay: 13.44s;" fill="#fff" height="15" width="600" y="476" x="0" class="bar"></rect>
  <rect style="animation-delay: 13.92s;" fill="#fff" height="15" width="600" y="493" x="0" class="bar"></rect>
  <rect style="animation-delay: 14.40s;" fill="#fff" height="15" width="600" y="510" x="0" class="bar"></rect>
  <rect style="animation-delay: 14.88s;" fill="#fff" height="15" width="600" y="527" x="0" class="bar"></rect>
  <rect style="animation-delay: 15.36s;" fill="#fff" height="15" width="600" y="544" x="0" class="bar"></rect>    
</svg>
